<svg width="32" height="32" viewBox="0 0 32 32" fill="none" xmlns="http://www.w3.org/2000/svg">
<rect x="0.5" y="0.5" width="31" height="31" rx="15.5" fill="#D9D9D9"/>
<path d="M16 5C21.2036 5 21.947 9.23792 21.947 10.779C21.947 11.2864 21.9067 12.17 21.8128 13.1957C21.9759 13.1673 22.1156 13.1733 22.2026 13.2369C22.5409 13.4842 22.4759 13.9119 22.4281 14.2269C22.4231 14.2595 22.4184 14.2909 22.4143 14.3207C22.3973 14.444 22.3505 14.5659 22.2971 14.7052C22.2124 14.9258 22.1111 15.19 22.0849 15.5719C22.0636 15.8828 21.9521 15.952 21.8097 16.0406C21.6439 16.1437 21.4292 16.2419 21.279 16.8391C21.1287 17.4364 21.0366 20.0837 19.8143 20.8561C19.4252 21.1021 19.2022 21.298 19.2022 22.0139C19.2022 22.6682 20.1992 23.4581 22.2344 23.8762C23.975 24.2339 27.0465 24.6169 27.8591 26.5253C28.3862 27.763 28.6697 29.3408 29 32H3C3.33025 29.3408 3.61384 27.763 4.14087 26.5253C4.95351 24.6169 8.02494 24.2339 9.76565 23.8762C11.8008 23.4581 12.7977 22.6682 12.7977 22.0139C12.7977 21.298 12.5748 21.1021 12.1856 20.8561C10.9634 20.0837 10.8713 17.4364 10.721 16.8391C10.5708 16.2419 10.3561 16.1437 10.1903 16.0406C10.0479 15.952 9.93643 15.8828 9.91511 15.5719C9.88889 15.19 9.78756 14.9258 9.70295 14.7052C9.64946 14.5659 9.60274 14.444 9.58573 14.3207C9.58164 14.2909 9.57681 14.2595 9.57191 14.2269C9.52407 13.9119 9.45914 13.4842 9.79744 13.2369C9.88435 13.1733 10.0241 13.1673 10.1872 13.1957C10.0933 12.17 10.053 11.2864 10.053 10.779C10.053 9.23792 10.7964 5 16 5Z" fill="white"/>
<rect x="0.5" y="0.5" width="31" height="31" rx="15.5" stroke="#D9D9D9"/>
</svg>