<svg width="64" height="64" viewBox="0 0 64 64" fill="none" xmlns="http://www.w3.org/2000/svg">
<path d="M18.8868 30.1238H0.390497C0.175006 30.1238 0 29.9505 0 29.7367V11.3874C0 11.1733 0.175006 11 0.390497 11H18.8868C19.1023 11 19.2773 11.1733 19.2773 11.3874V29.7367C19.2773 29.9505 19.1023 30.1238 18.8868 30.1238Z" fill="#3569B2"/>
<path d="M63.6096 30.1238H45.1132C44.8978 30.1238 44.7227 29.9505 44.7227 29.7367V11.3874C44.7227 11.1733 44.8978 11 45.1132 11H63.6096C63.8254 11 64.0001 11.1733 64.0001 11.3874V29.7367C64.0001 29.9505 63.8254 30.1238 63.6096 30.1238Z" fill="#3569B2"/>
<path d="M41.2478 30.1238H22.7515C22.536 30.1238 22.3613 29.9505 22.3613 29.7367V11.3874C22.3613 11.1733 22.536 11 22.7515 11H41.2478C41.4637 11 41.6383 11.1733 41.6383 11.3874V29.7367C41.6383 29.9505 41.4637 30.1238 41.2478 30.1238Z" fill="#3569B2"/>
<path d="M41.2478 52.3076H22.7515C22.536 52.3076 22.3613 52.1343 22.3613 51.9202V33.5712C22.3613 33.3571 22.536 33.1838 22.7515 33.1838H41.2478C41.4637 33.1838 41.6383 33.3571 41.6383 33.5712V51.9202C41.6383 52.1343 41.4637 52.3076 41.2478 52.3076Z" fill="#3569B2"/>
</svg>
