<?xml version="1.0" encoding="UTF-8"?>
<svg id="Layer_1" data-name="Layer 1" xmlns="http://www.w3.org/2000/svg" viewBox="0 0 1073 230">
  <defs>
    <style>
      .cls-1 {
        fill: #1f386a;
      }
    </style>
  </defs>
  <g>
    <g>
      <rect class="cls-1" y="1.17" width="105.42" height="105.42" rx="1.02" ry="1.02"/>
      <rect class="cls-1" x="244.56" y="1.17" width="105.42" height="105.42" rx="1.02" ry="1.02"/>
      <rect class="cls-1" x="122.28" y="1.17" width="105.42" height="105.42" rx="1.02" ry="1.02"/>
      <rect class="cls-1" x="122.28" y="123.45" width="105.42" height="105.42" rx="1.02" ry="1.02"/>
    </g>
    <g>
      <path class="cls-1" d="M246.88,213.35c-3.7,0-6.72,3-6.72,6.7s3,6.7,6.68,6.7,6.72-3.01,6.72-6.7-3-6.7-6.68-6.7Zm0,.97c3.18,0,5.67,2.5,5.67,5.69s-2.51,5.76-5.71,5.76-5.67-2.5-5.67-5.69,2.51-5.76,5.71-5.76Z"/>
      <path class="cls-1" d="M245.52,220.92h1.39l1.7,2.37h1.55l-1.84-2.58c.94-.27,1.59-.96,1.59-2.06,0-.63-.2-1.12-.56-1.46-.47-.47-1.17-.74-2.08-.74h-3.05v6.85h1.3v-2.37Zm0-3.3h1.7c.85,0,1.35,.38,1.35,1.07s-.51,1.1-1.35,1.1h-1.7v-2.17Z"/>
    </g>
  </g>
  <g>
    <path class="cls-1" d="M471.03,11.65h-15.64V1.23h42.58V11.65h-15.64V52.62h-11.31V11.65Z"/>
    <path class="cls-1" d="M501.07,26.92c0-14.61,11.53-26.58,27.38-26.58s27.24,11.82,27.24,26.58-11.53,26.58-27.38,26.58-27.24-11.82-27.24-26.58Zm42.8,0c0-8.81-6.46-16.15-15.56-16.15s-15.42,7.2-15.42,16.15,6.46,16.15,15.56,16.15,15.42-7.2,15.42-16.15Z"/>
    <path class="cls-1" d="M559.88,45.13l6.68-8c4.63,3.82,9.47,6.24,15.34,6.24,4.63,0,7.42-1.84,7.42-4.99,0-2.86-1.76-4.33-10.35-6.53-10.35-2.64-17.03-5.51-17.03-15.86,0-9.33,7.49-15.49,17.99-15.49,7.49,0,13.88,2.35,19.09,6.54l-5.87,8.52c-4.55-3.16-9.03-5.07-13.36-5.07s-6.61,1.98-6.61,4.63c0,3.38,2.2,4.48,11.09,6.75,10.42,2.72,16.3,6.46,16.3,15.56,0,10.2-7.78,15.93-18.87,15.93-7.78,0-15.64-2.72-21.8-8.22Z"/>
    <path class="cls-1" d="M609.18,1.23h11.31V21.56h20.85V1.23h11.31V52.62h-11.31V31.99h-20.85v20.63h-11.31V1.23Z"/>
    <path class="cls-1" d="M663.99,1.23h11.31V23.69l20.85-22.47h13.66l-20.92,21.81,21.88,29.59h-13.58l-15.93-21.88-5.95,6.17v15.71h-11.31V1.23Z"/>
    <path class="cls-1" d="M716.29,1.23h38.76V11.28h-27.53v10.43h24.23v10.06h-24.23v10.79h27.9v10.06h-39.13V1.23Z"/>
    <path class="cls-1" d="M764.82,1.23h10.43l24.08,31.64V1.23h11.16V52.62h-9.62l-24.89-32.67V52.62h-11.16V1.23Z"/>
    <path class="cls-1" d="M832.49,11.65h-15.64V1.23h42.58V11.65h-15.64V52.62h-11.31V11.65Z"/>
  </g>
  <g>
    <path class="cls-1" d="M477.42,88.98h10.42l22.03,51.76h-11.82l-4.7-11.53h-21.73l-4.7,11.53h-11.53l22.03-51.76Zm11.89,30.25l-6.83-16.66-6.83,16.66h13.66Z"/>
    <path class="cls-1" d="M515.93,89.34h12.19l13.51,21.73,13.51-21.73h12.19v51.39h-11.23v-33.55l-14.46,21.95h-.29l-14.32-21.73v33.33h-11.09v-51.39Z"/>
    <path class="cls-1" d="M595.41,88.98h10.42l22.03,51.76h-11.82l-4.7-11.53h-21.73l-4.7,11.53h-11.53l22.03-51.76Zm11.89,30.25l-6.83-16.66-6.83,16.66h13.66Z"/>
    <path class="cls-1" d="M633.91,89.34h11.31v41.11h25.62v10.28h-36.93v-51.39Z"/>
    <path class="cls-1" d="M677.38,89.34h11.31v51.39h-11.31v-51.39Z"/>
    <path class="cls-1" d="M714.16,120.47l-19.75-31.13h13.21l12.26,20.63,12.48-20.63h12.85l-19.75,30.91v20.48h-11.31v-20.26Z"/>
    <path class="cls-1" d="M772.1,89.34h39.13v10.28h-27.82v10.94h24.52v10.28h-24.52v19.9h-11.31v-51.39Z"/>
    <path class="cls-1" d="M832.07,88.98h10.42l22.03,51.76h-11.82l-4.7-11.53h-21.73l-4.7,11.53h-11.53l22.03-51.76Zm11.89,30.25l-6.83-16.66-6.83,16.66h13.66Z"/>
    <path class="cls-1" d="M870.58,89.34h10.43l24.08,31.64v-31.64h11.16v51.39h-9.62l-24.89-32.67v32.67h-11.16v-51.39Z"/>
    <path class="cls-1" d="M927.6,89.34h11.31v41.11h25.62v10.28h-36.93v-51.39Z"/>
    <path class="cls-1" d="M990.75,88.98h10.42l22.03,51.76h-11.82l-4.7-11.53h-21.73l-4.7,11.53h-11.53l22.03-51.76Zm11.89,30.25l-6.83-16.66-6.83,16.66h13.66Z"/>
    <path class="cls-1" d="M1029.26,89.34h23.49c6.53,0,11.6,1.84,14.98,5.21,2.86,2.86,4.4,6.9,4.4,11.89,0,8.3-4.48,13.51-11.01,15.93l12.55,18.35h-13.21l-11.16-16.45h-8.74v16.45h-11.31v-51.39Zm22.76,24.96c5.51,0,8.66-2.94,8.66-7.41,0-4.84-3.38-7.34-8.88-7.34h-11.23v14.76h11.45Z"/>
  </g>
  <g>
    <path class="cls-1" d="M459.58,206.82v-29.37h11.31v29.07c0,8.37,4.18,12.7,11.09,12.7s11.09-4.18,11.09-12.33v-29.44h11.31v29c0,15.57-8.74,23.2-22.54,23.2s-22.25-7.71-22.25-22.83Z"/>
    <path class="cls-1" d="M514.5,177.46h10.43l24.08,31.64v-31.64h11.16v51.39h-9.62l-24.89-32.67v32.67h-11.16v-51.39Z"/>
    <path class="cls-1" d="M571.11,177.46h11.31v51.39h-11.31v-51.39Z"/>
    <path class="cls-1" d="M587.94,177.46h12.48l13.44,36.2,13.44-36.2h12.19l-20.78,51.76h-9.98l-20.78-51.76Z"/>
    <path class="cls-1" d="M644.91,177.46h38.77v10.06h-27.53v10.43h24.23v10.06h-24.23v10.79h27.9v10.06h-39.13v-51.39Z"/>
    <path class="cls-1" d="M692.8,177.46h23.49c6.53,0,11.6,1.84,14.98,5.21,2.86,2.86,4.4,6.9,4.4,11.89,0,8.3-4.48,13.51-11.01,15.93l12.55,18.35h-13.22l-11.16-16.45h-8.74v16.45h-11.31v-51.39Zm22.76,24.96c5.51,0,8.66-2.94,8.66-7.42,0-4.85-3.38-7.34-8.88-7.34h-11.23v14.76h11.45Z"/>
    <path class="cls-1" d="M740.06,221.36l6.68-8c4.63,3.82,9.47,6.24,15.34,6.24,4.63,0,7.42-1.84,7.42-4.99,0-2.86-1.76-4.33-10.35-6.53-10.35-2.64-17.03-5.51-17.03-15.86,0-9.32,7.49-15.49,17.99-15.49,7.49,0,13.88,2.35,19.09,6.53l-5.87,8.52c-4.55-3.16-9.03-5.07-13.36-5.07s-6.61,1.98-6.61,4.63c0,3.38,2.2,4.48,11.09,6.75,10.43,2.72,16.3,6.46,16.3,15.57,0,10.2-7.78,15.93-18.87,15.93-7.78,0-15.64-2.72-21.8-8.22Z"/>
    <path class="cls-1" d="M788.93,177.46h11.31v51.39h-11.31v-51.39Z"/>
    <path class="cls-1" d="M821.76,187.88h-15.64v-10.43h42.58v10.43h-15.64v40.97h-11.31v-40.97Z"/>
    <path class="cls-1" d="M854.45,177.46h38.77v10.06h-27.53v10.43h24.23v10.06h-24.23v10.79h27.9v10.06h-39.13v-51.39Z"/>
    <path class="cls-1" d="M913.67,187.88h-15.64v-10.43h42.58v10.43h-15.64v40.97h-11.31v-40.97Z"/>
    <path class="cls-1" d="M946.61,177.46h11.31v51.39h-11.31v-51.39Z"/>
  </g>
</svg>